<?xml version="1.0" encoding="UTF-8"?>
<svg width="46px" height="48px" viewBox="0 0 46 48" version="1.1" xmlns="http://www.w3.org/2000/svg" xmlns:xlink="http://www.w3.org/1999/xlink">
    <!-- Generator: Sketch 42 (36781) - http://www.bohemiancoding.com/sketch -->
    <title>Logo</title>
    <desc>Created with Sketch.</desc>
    <defs>
        <linearGradient x1="0%" y1="50%" x2="100%" y2="50%" id="linearGradient-1">
            <stop stop-color="#6700BA" offset="0%"></stop>
            <stop stop-color="#6441A5" offset="100%"></stop>
        </linearGradient>
        <path d="M45.7275139,13.2605026 C41.7729335,5.38988731 33.5991259,0 24.1311475,0 C10.7785792,0 0,10.72 0,24 C0,37.28 10.7785792,48 24.1311475,48 C33.5991259,48 41.7729335,42.6101127 45.7275139,34.7394974 L24.1311475,24 L45.7275139,13.2605026 Z" id="path-2"></path>
        <linearGradient x1="100%" y1="0%" x2="0%" y2="100%" id="linearGradient-4">
            <stop stop-color="#841696" offset="0%"></stop>
            <stop stop-color="#BA0099" offset="97.3592953%"></stop>
        </linearGradient>
    </defs>
    <g id="Page-1" stroke="none" stroke-width="1" fill="none" fill-rule="evenodd">
        <g id="Index_320" transform="translate(-24.000000, -24.000000)">
            <g id="Header" transform="translate(24.000000, 24.000000)">
                <g id="Logo">
                    <g id="Rectangle">
                        <mask id="mask-3" fill="white">
                            <use xlink:href="#path-2"></use>
                        </mask>
                        <use id="Combined-Shape" fill="url(#linearGradient-1)" xlink:href="#path-2"></use>
                        <rect fill="url(#linearGradient-4)" mask="url(#mask-3)" x="0" y="0" width="46" height="48"></rect>
                        <ellipse id="Oval" fill="#FFFFFF" mask="url(#mask-3)" cx="19.6065574" cy="14.25" rx="3.7704918" ry="3.75"></ellipse>
                        <ellipse id="Oval" fill="#FFFFFF" mask="url(#mask-3)" cx="27.9016393" cy="9.75" rx="3.7704918" ry="3.75"></ellipse>
                        <ellipse id="Oval" fill="#980E97" mask="url(#mask-3)" cx="20.3606557" cy="13.5" rx="1.50819672" ry="1.5"></ellipse>
                        <ellipse id="Oval" fill="#980E97" mask="url(#mask-3)" cx="28.6557377" cy="9" rx="1.50819672" ry="1.5"></ellipse>
                    </g>
                </g>
            </g>
        </g>
    </g>
</svg>