<?xml version="1.0" encoding="UTF-8"?>
<svg width="63px" height="64px" viewBox="0 0 63 64" version="1.1" xmlns="http://www.w3.org/2000/svg" xmlns:xlink="http://www.w3.org/1999/xlink">
    <defs>
        <linearGradient x1="0%" y1="50%" x2="100%" y2="50%" id="linearGradient-1">
            <stop stop-color="#6700BA" offset="0%"></stop>
            <stop stop-color="#6441A5" offset="100%"></stop>
        </linearGradient>
        <path d="M62.2772563,21.5921932 C57.9696169,9.01354344 46.0610525,0 32,0 C14.2933333,0 0,14.2933333 0,32 C0,49.7066667 14.2933333,64 32,64 C46.0610525,64 57.9696169,54.9864566 62.2772563,42.4078068 L32,32 L62.2772563,21.5921932 Z" id="path-2"></path>
        <linearGradient x1="100%" y1="0%" x2="0%" y2="100%" id="linearGradient-4">
            <stop stop-color="#841696" offset="0%"></stop>
            <stop stop-color="#BA0099" offset="97.3592953%"></stop>
        </linearGradient>
    </defs>
    <g id="Page-1" stroke="none" stroke-width="1" fill="none" fill-rule="evenodd">
        <g id="Thanks_1440-Copy" transform="translate(-240.000000, -60.000000)">
            <g id="Header" transform="translate(240.000000, 60.000000)">
                <g id="Logo">
                    <g id="Rectangle">
                        <mask id="mask-3" fill="white">
                            <use xlink:href="#path-2"></use>
                        </mask>
                        <use id="Combined-Shape" fill="url(#linearGradient-1)" xlink:href="#path-2"></use>
                        <rect fill="url(#linearGradient-4)" mask="url(#mask-3)" x="0" y="0" width="61" height="64"></rect>
                        <polygon id="×" fill="#FFFFFF" mask="url(#mask-3)" transform="translate(25.992000, 18.752000) rotate(-30.000000) translate(-25.992000, -18.752000) " points="25.992 17.7074934 29.0534847 14.628 30.0799825 15.6364891 27.0184978 18.7159825 30.116 21.8314934 29.0534847 22.876 25.9739913 19.8145153 22.9125066 22.876 21.868 21.8314934 24.9655022 18.7700087 21.8860087 15.6364891 22.9125066 14.628"></polygon>
                        <polygon id="×" fill="#FFFFFF" mask="url(#mask-3)" transform="translate(36.992000, 12.752000) rotate(-30.000000) translate(-36.992000, -12.752000) " points="36.992 11.7074934 40.0534847 8.628 41.0799825 9.63648908 38.0184978 12.7159825 41.116 15.8314934 40.0534847 16.876 36.9739913 13.8145153 33.9125066 16.876 32.868 15.8314934 35.9655022 12.7700087 32.8860087 9.63648908 33.9125066 8.628"></polygon>
                    </g>
                </g>
            </g>
        </g>
    </g>
</svg>