<svg width="63" height="64" viewBox="0 0 63 64" xmlns="http://www.w3.org/2000/svg" xmlns:xlink="http://www.w3.org/1999/xlink"><defs><linearGradient x1="0%" y1="50%" y2="50%" id="b"><stop stop-color="#6700BA" offset="0%"/><stop stop-color="#6441A5" offset="100%"/></linearGradient><path d="M62.277 21.592C57.97 9.014 46.061 0 32 0 14.293 0 0 14.293 0 32s14.293 32 32 32c14.061 0 25.97-9.014 30.277-21.592L32 32l30.277-10.408z" id="a"/><linearGradient x1="100%" y1="0%" x2="0%" y2="100%" id="c"><stop stop-color="#841696" offset="0%"/><stop stop-color="#BA0099" offset="97.359%"/></linearGradient></defs><g fill="none" fill-rule="evenodd"><mask id="d" fill="#fff"><use xlink:href="#a"/></mask><use fill="url(#b)" xlink:href="#a"/><path fill="url(#c)" mask="url(#d)" d="M0 0h61v64H0z"/><path fill="#FFF" mask="url(#d)" transform="rotate(-30 25.992 18.752)" d="M25.992 17.707l3.061-3.079 1.027 1.008-3.062 3.08 3.098 3.115-1.063 1.045-3.079-3.061-3.061 3.061-1.045-1.045 3.098-3.061-3.08-3.134 1.027-1.008z"/><path fill="#FFF" mask="url(#d)" transform="rotate(-30 36.992 12.752)" d="M36.992 11.707l3.061-3.079 1.027 1.008-3.062 3.08 3.098 3.115-1.063 1.045-3.079-3.061-3.061 3.061-1.045-1.045 3.098-3.061-3.08-3.134 1.027-1.008z"/></g></svg>