<svg width="16" height="16" viewBox="0 0 16 16" xmlns="http://www.w3.org/2000/svg"><path d="M14.098 0H1.902A1.9 1.9 0 0 0 0 1.897v12.206A1.9 1.9 0 0 0 1.902 16h12.196A1.9 1.9 0 0 0 16 14.103V1.897A1.9 1.9 0 0 0 14.098 0zM11.5 2.5A.5.5 0 0 1 12 2h1.5a.5.5 0 0 1 .5.5V4a.5.5 0 0 1-.5.5H12a.5.5 0 0 1-.5-.5V2.5zM8.02 4.949a3.074 3.074 0 0 1 3.077 3.07 3.073 3.073 0 0 1-3.077 3.07 3.073 3.073 0 0 1-3.077-3.07 3.074 3.074 0 0 1 3.077-3.07zm6.481 9.05a.5.5 0 0 1-.5.501H2a.5.5 0 0 1-.5-.5V6.5h2c-.26.375-.349 1.074-.349 1.519 0 2.677 2.184 4.855 4.868 4.855 2.683 0 4.867-2.178 4.867-4.855 0-.445-.063-1.133-.386-1.52h2V14z" fill="#837E8C" fill-rule="evenodd" fill-opacity=".2"/></svg>