<svg width="16" height="14" viewBox="0 0 16 14" xmlns="http://www.w3.org/2000/svg"><path d="M13.473 1.115C12.875.43 12.022 0 11.077 0 9.266 0 7.796 1.583 7.796 3.534c0 .277.028.546.084.805C5.152 4.19 2.734 2.786 1.114.645a3.739 3.739 0 0 0-.445 1.779c0 1.225.58 2.307 1.461 2.941a3.108 3.108 0 0 1-1.488-.44v.043c0 1.713 1.132 3.142 2.635 3.465a3.051 3.051 0 0 1-1.483.062c.418 1.404 1.63 2.426 3.066 2.453-1.123.949-2.54 1.514-4.077 1.514A6.13 6.13 0 0 1 0 12.413 8.83 8.83 0 0 0 5.032 14c6.039 0 9.34-5.385 9.34-10.055 0-.154-.003-.308-.009-.458A6.943 6.943 0 0 0 16 1.657a6.206 6.206 0 0 1-1.885.557A3.508 3.508 0 0 0 15.56.259a6.276 6.276 0 0 1-2.086.856z" fill="#837E8C" fill-rule="evenodd" fill-opacity=".2"/></svg>