<?xml version="1.0" encoding="UTF-8"?>
<svg width="16px" height="16px" viewBox="0 0 16 16" version="1.1" xmlns="http://www.w3.org/2000/svg" xmlns:xlink="http://www.w3.org/1999/xlink">
    <g id="Page-1" stroke="none" stroke-width="1" fill="none" fill-rule="evenodd" fill-opacity="0.2">
        <g id="Index_320" transform="translate(-88.000000, -716.000000)" fill="#837E8C">
            <g id="Footer" transform="translate(24.000000, 716.000000)">
                <g id="Group-5">
                    <path d="M78.0981371,0 L65.9018629,0 C64.8514306,0 64,0.849248561 64,1.89749884 L64,14.1025012 C64,15.150315 64.8514306,16 65.9018629,16 L78.0981371,16 C79.1485694,16 80,15.150315 80,14.1025012 L80,1.89749884 C80,0.849248561 79.1485694,0 78.0981371,0 L78.0981371,0 Z M75.5002046,2.49974088 C75.5002046,2.22393148 75.7240815,2.00005455 75.9998909,2.00005455 L77.4998227,2.00005455 C77.7760685,2.00005455 77.9999454,2.22393148 77.9999454,2.49974088 L77.9999454,4.0001091 C77.9999454,4.2759185 77.7760685,4.49979543 77.4998227,4.49979543 L75.9998909,4.49979543 C75.7240815,4.49979543 75.5002046,4.2759185 75.5002046,4.0001091 L75.5002046,2.49974088 L75.5002046,2.49974088 Z M72.0185473,4.94885852 C73.7179172,4.94885852 75.095655,6.32354145 75.095655,8.01854731 C75.095655,9.71398958 73.7179172,11.0882361 72.0185473,11.0882361 C70.3196138,11.0882361 68.941876,9.71398958 68.941876,8.01854731 C68.941876,6.32354145 70.3196138,4.94885852 72.0185473,4.94885852 L72.0185473,4.94885852 Z M78.5000682,13.9999454 C78.5000682,14.2757548 78.2761913,14.5000682 77.9999454,14.5000682 L66.0000546,14.5000682 C65.7238087,14.5000682 65.4999318,14.2757548 65.4999318,13.9999454 L65.4999318,6.49984998 L67.4999864,6.49984998 C67.2394512,6.87472384 67.1512969,7.5742847 67.1512969,8.01854731 C67.1512969,10.695906 69.335079,12.8744511 72.0185473,12.8744511 C74.7024521,12.8744511 76.8862341,10.695906 76.8862341,8.01854731 C76.8862341,7.5742847 76.822955,6.88563402 76.5000136,6.49984998 L78.5000682,6.49984998 L78.5000682,13.9999454 L78.5000682,13.9999454 Z" id="Instagram"></path>
                </g>
            </g>
        </g>
    </g>
</svg>