<?xml version="1.0" encoding="UTF-8"?>
<svg width="16px" height="14px" viewBox="0 0 16 14" version="1.1" xmlns="http://www.w3.org/2000/svg" xmlns:xlink="http://www.w3.org/1999/xlink">
    <g id="Page-1" stroke="none" stroke-width="1" fill="none" fill-rule="evenodd" fill-opacity="0.2">
        <g id="Index_320" transform="translate(-56.000000, -717.000000)" fill="#837E8C">
            <g id="Footer" transform="translate(24.000000, 716.000000)">
                <g id="Group-5">
                    <path d="M45.4726724,2.11511967 C44.8754439,1.42882317 44.0218941,1 43.0769231,1 C41.2655862,1 39.7955838,2.58251898 39.7955838,4.53420268 C39.7955838,4.81141264 39.8237791,5.08009996 39.8801698,5.33891897 C37.1520572,5.1913428 34.7336662,3.78600493 33.1137159,1.645029 C32.8309081,2.16894685 32.6694257,2.77674538 32.6694257,3.42401717 C32.6694257,4.64948255 33.2487117,5.7314088 34.1300296,6.3652238 C33.5926094,6.34817853 33.0855205,6.18759412 32.6420847,5.92473807 L32.6420847,5.96779981 C32.6420847,7.6808497 33.7737431,9.10996123 35.2766401,9.43337285 C35.0015219,9.51635641 34.7110245,9.55807247 34.4115558,9.55807247 C34.2000908,9.55807247 33.9937522,9.5365416 33.7938216,9.4952741 C34.2116252,10.8988177 35.4231704,11.9210855 36.859851,11.9484477 C35.7367367,12.8967031 34.3205618,13.4618884 32.7830614,13.4618884 C32.5181961,13.4618884 32.2563213,13.4457403 32,13.413444 C33.4524871,14.4146295 35.1788108,15 37.0320135,15 C43.070515,15 46.3715056,9.61548813 46.3715056,4.9446349 C46.3715056,4.79077889 46.3689424,4.63737144 46.3633888,4.48665535 C47.0046191,3.98830541 47.5616907,3.36615296 48,2.65742847 C47.4121699,2.93822691 46.7790564,3.12841626 46.1151844,3.21364263 C46.7931541,2.77674538 47.3134862,2.08416904 47.5587002,1.25881901 C46.9238779,1.66341995 46.2224121,1.95767518 45.4726724,2.11511967 Z" id="Twitter"></path>
                </g>
            </g>
        </g>
    </g>
</svg>